<svg width="650" height="650" xmlns="http://www.w3.org/2000/svg" xmlns:xlink="http://www.w3.org/1999/xlink" xml:space="preserve" overflow="hidden"><defs><clipPath id="clip0"><rect x="2690" y="776" width="650" height="650"/></clipPath></defs><g clip-path="url(#clip0)" transform="translate(-2690 -776)"><path d="M2690 1101C2690 921.507 2835.51 776 3015 776 3194.49 776 3340 921.507 3340 1101 3340 1280.49 3194.49 1426 3015 1426 2835.51 1426 2690 1280.49 2690 1101Z" fill="#49565E" fill-rule="evenodd"/><path d="M2742 1101C2742 950.226 2864.23 828 3015 828 3165.77 828 3288 950.226 3288 1101 3288 1251.77 3165.77 1374 3015 1374 2864.23 1374 2742 1251.77 2742 1101Z" fill="#2A333A" fill-rule="evenodd"/></g></svg>