<svg width="649" height="650" xmlns="http://www.w3.org/2000/svg" xmlns:xlink="http://www.w3.org/1999/xlink" xml:space="preserve" overflow="hidden"><defs><clipPath id="clip0"><rect x="3579" y="776" width="649" height="650"/></clipPath></defs><g clip-path="url(#clip0)" transform="translate(-3579 -776)"><path d="M3579 1101C3579 921.507 3724.28 776 3903.5 776 4082.72 776 4228 921.507 4228 1101 4228 1280.49 4082.72 1426 3903.5 1426 3724.28 1426 3579 1280.49 3579 1101Z" fill="#B59DFF" fill-rule="evenodd"/><path d="M4017.46 990.664C4030.12 978.007 4050.64 978.007 4063.3 990.664L4063.3 990.664C4075.95 1003.32 4075.95 1023.84 4063.3 1036.5L3889.14 1210.66C3876.48 1223.31 3855.96 1223.31 3843.3 1210.66L3843.3 1210.66C3830.65 1198 3830.65 1177.48 3843.3 1164.82Z" fill="#4C20BB" fill-rule="evenodd"/><path d="M3888.86 1164.35C3901.51 1177 3901.51 1197.52 3888.86 1210.18L3888.86 1210.18C3876.2 1222.84 3855.68 1222.84 3843.02 1210.18L3775.6 1142.76C3762.95 1130.11 3762.95 1109.58 3775.6 1096.93L3775.6 1096.93C3788.26 1084.27 3808.78 1084.27 3821.44 1096.93Z" fill="#4C20BB" fill-rule="evenodd"/></g></svg>