<svg width="2475" height="2475" xmlns="http://www.w3.org/2000/svg" xmlns:xlink="http://www.w3.org/1999/xlink" xml:space="preserve" overflow="hidden"><defs><clipPath id="clip0"><rect x="963" y="0" width="2475" height="2475"/></clipPath></defs><g clip-path="url(#clip0)" transform="translate(-963 0)"><rect x="963" y="0" width="2475" height="2475"/><path d="M2038.09 1722.53 2357.9 1722.53 2357.9 2038.65 2038.09 2038.65ZM2176.99 552.35C2288.99 552.35 2387.57 574.351 2472.74 618.352 2616.78 692.528 2688.8 817.167 2688.8 992.267 2688.8 1076.42 2668.25 1142.47 2627.13 1190.42 2589.99 1258.82 2531.24 1322.83 2450.88 1382.44 2405.86 1413.25 2374.9 1444.63 2358.01 1476.58 2345.21 1500.9 2338.81 1551.65 2338.81 1628.83L2044.41 1628.83C2044.41 1510.87 2055.76 1427.28 2078.47 1378.08 2105.19 1318.27 2161.64 1258.83 2247.79 1199.75 2286.71 1170.25 2314.8 1140.55 2332.08 1110.67 2351.76 1078.93 2361.6 1042.49 2361.6 1001.34 2361.6 936.018 2343.25 888.175 2306.57 857.808 2274.93 834.103 2237.13 822.25 2193.17 822.25 2122.11 822.25 2070.86 845.532 2039.41 892.094 2016.34 927.218 2004.81 973.299 2004.81 1030.34L2004.81 1050.64 1694.24 1050.64C1694.24 874.137 1746.63 743.453 1851.4 658.589 1939.64 587.763 2048.17 552.35 2176.99 552.35Z" stroke="#F2F2F2" stroke-width="37" stroke-linejoin="round" stroke-miterlimit="10" fill="none" fill-rule="evenodd"/><text fill="#000000" fill-opacity="0" font-family="Arial,Arial_MSFontService,sans-serif" font-size="1486.3" x="1694.24" y="1852.86">?</text></g></svg>